{
  "accessors": [
    {
      "bufferView": 0,
      "componentType": 5123,
      "count": 234,
      "type": "SCALAR"
    },
    {
      "bufferView": 1,
      "componentType": 5126,
      "count": 90,
      "max": [
        25.0,
        25.0,
        270.9755859375
      ],
      "min": [
        -25.0,
        -25.0,
        0.0
      ],
      "type": "VEC3"
    },
    {
      "bufferView": 2,
      "componentType": 5126,
      "count": 90,
      "type": "VEC3"
    },
    {
      "bufferView": 3,
      "componentType": 5126,
      "count": 90,
      "type": "VEC4"
    },
    {
      "bufferView": 4,
      "componentType": 5126,
      "count": 90,
      "max": [
        1.0,
        1.0
      ],
      "min": [
        0.0,
        0.08289998769760132
      ],
      "type": "VEC2"
    }
  ],
  "asset": {
    "generator": "Khronos glTF exporter for 3dsmax 2.00 (C)Khronos Group Inc.",
    "version": "2.0"
  },
  "bufferViews": [
    {
      "buffer": 0,
      "byteLength": 468,
      "target": 34963
    },
    {
      "buffer": 0,
      "byteLength": 1080,
      "byteOffset": 468,
      "target": 34962
    },
    {
      "buffer": 0,
      "byteLength": 1080,
      "byteOffset": 1548,
      "target": 34962
    },
    {
      "buffer": 0,
      "byteLength": 1440,
      "byteOffset": 2628,
      "target": 34962
    },
    {
      "buffer": 0,
      "byteLength": 720,
      "byteOffset": 4068,
      "target": 34962
    }
  ],
  "buffers": [
    {
      "byteLength": 4788,
      "uri": "pyramid_pillar.bin"
    }
  ],
  "materials": [
    {
      "name": "01 - Default",
      "pbrMetallicRoughness": {
        "baseColorFactor": [
          0.5882353186607361,
          0.5882353186607361,
          0.5882353186607361,
          1.0
        ],
        "metallicFactor": 0.0,
        "roughnessFactor": 0.6000000238418579
      }
    }
  ],
  "meshes": [
    {
      "name": "pillar_pyramid",
      "primitives": [
        {
          "attributes": {
            "NORMAL": 2,
            "POSITION": 1,
            "TANGENT": 3,
            "TEXCOORD_0": 4
          },
          "indices": 0,
          "material": 0,
          "mode": 4
        }
      ]
    }
  ],
  "nodes": [
    {
      "extras": {
        "": 1
      },
      "mesh": 0,
      "name": "pillar_pyramid",
      "rotation": [
        0.7071067690849304,
        -0.0,
        -0.0,
        -0.7071067690849304
      ],
      "scale": [
        0.05000000074505806,
        0.05000000074505806,
        0.05000000074505806
      ],
      "translation": [
        0.0,
        0.0,
        0.0
      ]
    }
  ],
  "scene": 0,
  "scenes": [
    {
      "nodes": [
        0
      ]
    }
  ]
}
