{
  "accessors": [
    {
      "bufferView": 0,
      "componentType": 5123,
      "count": 420,
      "type": "SCALAR"
    },
    {
      "bufferView": 1,
      "componentType": 5126,
      "count": 240,
      "max": [
        14.989899635314941,
        14.989899635314941,
        250.0
      ],
      "min": [
        -14.989899635314941,
        -14.989899635314941,
        0.0
      ],
      "type": "VEC3"
    },
    {
      "bufferView": 2,
      "componentType": 5126,
      "count": 240,
      "type": "VEC3"
    },
    {
      "bufferView": 3,
      "componentType": 5126,
      "count": 240,
      "type": "VEC4"
    },
    {
      "bufferView": 4,
      "componentType": 5126,
      "count": 240,
      "max": [
        0.9904999732971191,
        0.9832000136375427
      ],
      "min": [
        0.003599999938160181,
        0.008400022983551025
      ],
      "type": "VEC2"
    }
  ],
  "asset": {
    "generator": "Khronos glTF exporter for 3dsmax 2.00 (C)Khronos Group Inc.",
    "version": "2.0"
  },
  "bufferViews": [
    {
      "buffer": 0,
      "byteLength": 840,
      "target": 34963
    },
    {
      "buffer": 0,
      "byteLength": 2880,
      "byteOffset": 840,
      "target": 34962
    },
    {
      "buffer": 0,
      "byteLength": 2880,
      "byteOffset": 3720,
      "target": 34962
    },
    {
      "buffer": 0,
      "byteLength": 3840,
      "byteOffset": 6600,
      "target": 34962
    },
    {
      "buffer": 0,
      "byteLength": 1920,
      "byteOffset": 10440,
      "target": 34962
    }
  ],
  "buffers": [
    {
      "byteLength": 12360,
      "uri": "square_pillar.bin"
    }
  ],
  "materials": [
    {
      "name": "01 - Default",
      "pbrMetallicRoughness": {
        "baseColorFactor": [
          0.5882353186607361,
          0.5882353186607361,
          0.5882353186607361,
          1.0
        ],
        "metallicFactor": 0.0,
        "roughnessFactor": 0.6000000238418579
      }
    }
  ],
  "meshes": [
    {
      "name": "pillar_square",
      "primitives": [
        {
          "attributes": {
            "NORMAL": 2,
            "POSITION": 1,
            "TANGENT": 3,
            "TEXCOORD_0": 4
          },
          "indices": 0,
          "material": 0,
          "mode": 4
        }
      ]
    }
  ],
  "nodes": [
    {
      "extras": {
        "": 3
      },
      "mesh": 0,
      "name": "pillar_square",
      "rotation": [
        0.7071067690849304,
        -0.0,
        -0.0,
        -0.7071067690849304
      ],
      "scale": [
        0.05000000074505806,
        0.05000000074505806,
        0.05000000074505806
      ],
      "translation": [
        0.0,
        0.0,
        0.0
      ]
    }
  ],
  "scene": 0,
  "scenes": [
    {
      "nodes": [
        0
      ]
    }
  ]
}
